<svg width="21" height="20" viewBox="0 0 21 20" fill="none" xmlns="http://www.w3.org/2000/svg">
<path d="M16.89 13.8648C16.5407 14.6387 16.3739 14.9838 15.9237 15.6682C15.2968 16.6232 14.4121 17.8124 13.3159 17.8223C12.3418 17.8316 12.0919 17.189 10.7698 17.1961C9.44854 17.2032 9.17235 17.8337 8.19823 17.8245C7.10199 17.8145 6.2649 16.741 5.63655 15.7854C3.88285 13.1143 3.69967 9.9804 4.78171 8.31474C5.55064 7.13046 6.76403 6.43821 7.905 6.43821C9.06656 6.43821 9.79644 7.07508 10.7571 7.07508C11.6886 7.07508 12.2566 6.4375 13.5992 6.4375C14.6145 6.4375 15.6894 6.98988 16.4562 7.94483C13.9457 9.32081 14.3532 12.9056 16.89 13.8648Z" stroke="#565E6C" stroke-width="1.704" stroke-miterlimit="10" stroke-linecap="round"/>
<path d="M12.7056 3.88936C13.1671 3.29722 13.5171 2.46155 13.39 1.60742C12.636 1.65925 11.7556 2.1385 11.2408 2.7633C10.7737 3.33059 10.3881 4.17123 10.5379 4.98915C11.3601 5.01471 12.2114 4.52339 12.7056 3.88936Z" fill="#565E6C"/>
</svg>
