<svg width="21" height="20" viewBox="0 0 21 20" fill="none" xmlns="http://www.w3.org/2000/svg">
<path d="M18.4999 9.99989C18.4993 5.74429 15.1671 2.23405 10.9173 2.01204C6.66749 1.79003 2.98771 4.93396 2.54362 9.16633C2.09954 13.3987 5.04662 17.238 9.24995 17.9029L9.24995 12.3124L7.21895 12.3124L7.21895 9.99989H9.24995V8.23739C9.24995 6.23239 10.4444 5.12489 12.2714 5.12489C12.8714 5.13321 13.47 5.18535 14.0624 5.28089V7.24989H13.0534C12.7052 7.20363 12.3547 7.31828 12.1011 7.56147C11.8475 7.80465 11.7183 8.14997 11.7499 8.49989V9.99989L13.9689 9.99989L13.6139 12.3124H11.7499L11.7499 17.9029C15.6378 17.2879 18.5006 13.9361 18.4999 9.99989Z" fill="#335CA6"/>
</svg>
