<svg width="52" height="48" viewBox="0 0 52 48" fill="none" xmlns="http://www.w3.org/2000/svg">
<path d="M33.2213 30.7934C33.2213 31.2718 32.9312 31.7031 32.4841 31.8761L25.5725 34.5275C23.1406 35.461 21.2343 37.4064 20.3401 39.8617L17.712 47.1034C17.693 47.1573 17.6519 47.1954 17.6249 47.2442C17.6028 47.2847 17.5807 47.3238 17.5531 47.361C17.5108 47.4167 17.4691 47.4668 17.4163 47.5119C17.3354 47.5841 17.2465 47.6476 17.1471 47.6913C17.0845 47.7148 17.0214 47.7378 16.9588 47.7465C16.8963 47.7617 16.8337 47.77 16.7705 47.77L16.5669 47.7465C16.5037 47.7378 16.4411 47.7148 16.378 47.6913C16.2749 47.6467 16.1842 47.5818 16.102 47.5073C16.0517 47.4641 16.0106 47.4149 15.9695 47.3615C15.9456 47.3293 15.9266 47.2962 15.9069 47.2626C15.8738 47.2083 15.8284 47.1637 15.8057 47.1034L13.1776 39.8617C12.2907 37.4064 10.3845 35.461 7.95323 34.5275L1.04159 31.8761C0.594467 31.7031 0.296387 31.2718 0.296387 30.7934C0.296387 30.2913 0.625747 29.844 1.10415 29.6949L7.42698 27.7023C10.1649 26.8393 12.3226 24.7214 13.2481 22.0069L15.8211 14.4052C15.8523 14.3194 15.8916 14.2409 15.9388 14.1704C15.9701 14.1225 16.002 14.0758 16.0486 14.0368C16.1431 13.9349 16.2608 13.8563 16.4019 13.8012C16.4411 13.7856 16.4884 13.7698 16.535 13.7624C16.6061 13.7379 16.684 13.7305 16.7625 13.7305C16.8411 13.7305 16.9195 13.7379 16.9901 13.7624C17.0373 13.7698 17.0845 13.7856 17.1238 13.8012C17.2489 13.8484 17.3587 13.9268 17.4531 14.0132C17.4924 14.0521 17.5237 14.0918 17.555 14.1304C17.6175 14.2169 17.6727 14.3029 17.704 14.4052L20.2769 22.0069C21.1951 24.7214 23.3602 26.8393 26.0901 27.7023L32.413 29.6949C32.8993 29.844 33.2213 30.2913 33.2213 30.7934Z" fill="#00927F"/>
<path d="M51.1528 17.0323C51.1528 17.2942 50.9941 17.5304 50.7494 17.6248L46.9645 19.0771C45.6328 19.5882 44.5891 20.6534 44.0996 21.9979L42.6607 25.963C42.6502 25.9925 42.6276 26.0133 42.6129 26.0404C42.6005 26.0625 42.589 26.084 42.5738 26.1041C42.5503 26.1343 42.5278 26.1619 42.4988 26.1863C42.4547 26.2268 42.4054 26.2606 42.3512 26.285C42.3171 26.2979 42.2822 26.3109 42.2481 26.3152C42.2136 26.3238 42.1791 26.3282 42.1451 26.3282L42.0333 26.3152C41.9988 26.3109 41.9648 26.2979 41.9303 26.285C41.8737 26.2598 41.824 26.2249 41.7794 26.1846C41.7513 26.1607 41.7292 26.1336 41.7062 26.1048C41.6934 26.0869 41.6832 26.0691 41.6722 26.0507C41.6543 26.0207 41.629 25.9963 41.617 25.963L40.1781 21.9979C39.6924 20.6534 38.6483 19.5882 37.3168 19.0771L33.5325 17.6248C33.2872 17.5304 33.124 17.2942 33.124 17.0323C33.124 16.757 33.3049 16.5129 33.5669 16.4307L37.0291 15.3401C38.5281 14.8672 39.7094 13.7074 40.2168 12.2215L41.6253 8.05917C41.6428 8.01151 41.6639 7.96841 41.6897 7.92982C41.7072 7.9042 41.7242 7.8783 41.7499 7.85695C41.8015 7.80116 41.8659 7.75755 41.9431 7.72811C41.9648 7.71946 41.9905 7.71086 42.0163 7.70603C42.0549 7.69379 42.0977 7.68951 42.1405 7.68951C42.1837 7.68951 42.2265 7.69379 42.2651 7.70603C42.2914 7.71086 42.3171 7.71946 42.3383 7.72811C42.4068 7.75373 42.4675 7.79683 42.5191 7.84403C42.5407 7.86537 42.5577 7.88695 42.5743 7.90898C42.6092 7.95572 42.6387 8.00287 42.6566 8.05917L44.0651 12.2215C44.5674 13.7074 45.7538 14.8672 47.2483 15.3401L50.7107 16.4307C50.9771 16.5129 51.1528 16.757 51.1528 17.0323Z" fill="#FF8A15"/>
<path d="M33.008 7.02582C33.008 7.19809 32.9031 7.35334 32.7419 7.4159L30.2499 8.37201C29.3728 8.70891 28.6853 9.41041 28.3633 10.2955L27.4157 12.9064C27.4089 12.926 27.3936 12.9394 27.3838 12.9574C27.3758 12.9716 27.3678 12.9862 27.358 12.9992C27.3427 13.0193 27.3279 13.0377 27.3089 13.0537C27.2795 13.0801 27.2476 13.1026 27.212 13.1179C27.1887 13.1266 27.1667 13.1359 27.1439 13.1383C27.1213 13.1438 27.0986 13.1462 27.0759 13.1462L27.0023 13.1383C26.9796 13.1359 26.9575 13.1266 26.9342 13.1179C26.8974 13.1021 26.8649 13.0789 26.8348 13.0523C26.8171 13.0365 26.8023 13.0187 26.787 12.9996C26.779 12.9886 26.7717 12.9764 26.7649 12.9635C26.7527 12.9438 26.7361 12.9284 26.7281 12.9064L25.7805 10.2955C25.461 9.41041 24.7734 8.70891 23.8963 8.37201L21.4044 7.4159C21.2431 7.35334 21.1357 7.19809 21.1357 7.02582C21.1357 6.84421 21.2547 6.68298 21.4271 6.62907L23.7068 5.91078C24.6943 5.59982 25.472 4.83627 25.8063 3.85734L26.7336 1.11629C26.7447 1.08515 26.7594 1.05686 26.7759 1.03096C26.7876 1.0144 26.7987 0.997428 26.8158 0.983306C26.8495 0.946414 26.8925 0.918124 26.9434 0.898482C26.9575 0.892962 26.9741 0.886982 26.9912 0.8839C27.0164 0.875252 27.0452 0.873596 27.0734 0.873596C27.1016 0.873596 27.1299 0.875252 27.155 0.8839C27.1722 0.886982 27.1887 0.892962 27.2035 0.898482C27.2488 0.915226 27.2881 0.944022 27.3218 0.975164C27.3365 0.98878 27.3476 1.00295 27.3586 1.01707C27.3813 1.04821 27.4015 1.07963 27.4126 1.11629L28.3406 3.85734C28.6711 4.83627 29.4519 5.59982 30.4363 5.91078L32.7167 6.62907C32.8915 6.68298 33.008 6.84421 33.008 7.02582Z" fill="#4069E5"/>
</svg>
