<svg width="487" height="491" viewBox="0 0 487 491" fill="none" xmlns="http://www.w3.org/2000/svg">
<g clip-path="url(#clip0_1_4674)">
<mask id="mask0_1_4674" style="mask-type:luminance" maskUnits="userSpaceOnUse" x="356" y="264" width="131" height="129">
<path d="M421.946 264.341H420.7C385.285 264.341 356.575 293.051 356.575 328.466C356.575 363.881 385.285 392.591 420.7 392.591H421.946C457.361 392.591 486.071 363.881 486.071 328.466C486.071 293.051 457.361 264.341 421.946 264.341Z" fill="white"/>
</mask>
<g mask="url(#mask0_1_4674)">
<path d="M421.946 264.341H420.7C385.285 264.341 356.575 293.051 356.575 328.466C356.575 363.881 385.285 392.591 420.7 392.591H421.946C457.361 392.591 486.071 363.881 486.071 328.466C486.071 293.051 457.361 264.341 421.946 264.341Z" fill="#FF8A15"/>
</g>
<mask id="mask1_1_4674" style="mask-type:luminance" maskUnits="userSpaceOnUse" x="356" y="264" width="131" height="129">
<path d="M421.952 264.206H420.706C385.291 264.206 356.581 292.915 356.581 328.331C356.581 363.746 385.291 392.456 420.706 392.456H421.952C457.367 392.456 486.077 363.746 486.077 328.331C486.077 292.915 457.367 264.206 421.952 264.206Z" fill="white"/>
</mask>
<g mask="url(#mask1_1_4674)">
<path d="M386.087 390.743C386.087 380.326 394.535 371.88 404.944 371.88H436.792C447.208 371.88 455.654 380.326 455.654 390.743V403.517H386.087V390.743Z" fill="#D96C00"/>
</g>
<mask id="mask2_1_4674" style="mask-type:luminance" maskUnits="userSpaceOnUse" x="356" y="264" width="131" height="129">
<path d="M421.942 264.223H420.697C385.282 264.223 356.572 292.932 356.572 328.348C356.572 363.763 385.282 392.473 420.697 392.473H421.942C457.357 392.473 486.067 363.763 486.067 328.348C486.067 292.932 457.357 264.223 421.942 264.223Z" fill="white"/>
</mask>
<g mask="url(#mask2_1_4674)">
<path d="M434.384 374.089C433.83 368.554 428.849 369.445 428.849 369.445C428.849 369.445 424.181 369.909 420.872 369.909C417.565 369.909 412.9 369.445 412.9 369.445C412.9 369.445 407.919 368.554 407.365 374.089C406.521 382.488 409.995 393.373 409.995 393.373C409.995 393.373 416.939 389.499 420.872 385.679C424.81 389.499 431.754 393.373 431.754 393.373C431.754 393.373 435.225 382.488 434.384 374.089Z" fill="#FFF7F0"/>
</g>
<mask id="mask3_1_4674" style="mask-type:luminance" maskUnits="userSpaceOnUse" x="356" y="264" width="131" height="129">
<path d="M421.952 264.255H420.706C385.291 264.255 356.581 292.965 356.581 328.38C356.581 363.795 385.291 392.505 420.706 392.505H421.952C457.367 392.505 486.077 363.795 486.077 328.38C486.077 292.965 457.367 264.255 421.952 264.255Z" fill="white"/>
</mask>
<g mask="url(#mask3_1_4674)">
<path d="M429.728 375C429.728 379.896 425.763 383.866 420.869 383.866C415.974 383.866 412.012 379.896 412.012 375V357.916C412.012 353.019 415.974 349.05 420.869 349.05C425.763 349.05 429.728 353.019 429.728 357.916V375Z" fill="#FEE2CA"/>
</g>
<mask id="mask4_1_4674" style="mask-type:luminance" maskUnits="userSpaceOnUse" x="356" y="264" width="131" height="129">
<path d="M421.975 264.323H420.729C385.314 264.323 356.604 293.033 356.604 328.448C356.604 363.863 385.314 392.573 420.729 392.573H421.975C457.39 392.573 486.1 363.863 486.1 328.448C486.1 293.033 457.39 264.323 421.975 264.323Z" fill="white"/>
</mask>
<g mask="url(#mask4_1_4674)">
<path d="M394.821 331.553C396.163 338.548 392.869 345.064 387.473 346.091C382.074 347.133 376.621 342.291 375.281 335.283C373.944 328.294 377.24 321.778 382.629 320.75C388.032 319.722 393.488 324.557 394.821 331.553Z" fill="#FEE2CA"/>
</g>
<mask id="mask5_1_4674" style="mask-type:luminance" maskUnits="userSpaceOnUse" x="356" y="264" width="131" height="129">
<path d="M421.975 264.333H420.729C385.314 264.333 356.604 293.042 356.604 328.458C356.604 363.873 385.314 392.583 420.729 392.583H421.975C457.39 392.583 486.1 363.873 486.1 328.458C486.1 293.042 457.39 264.333 421.975 264.333Z" fill="white"/>
</mask>
<g mask="url(#mask5_1_4674)">
<path d="M391.921 332.117C392.862 337.045 390.55 341.617 386.753 342.337C382.963 343.061 379.123 339.659 378.183 334.745C377.246 329.825 379.554 325.246 383.351 324.524C387.144 323.793 390.981 327.201 391.921 332.117Z" fill="#FECAB6"/>
</g>
<mask id="mask6_1_4674" style="mask-type:luminance" maskUnits="userSpaceOnUse" x="356" y="264" width="131" height="129">
<path d="M421.919 264.323H420.673C385.258 264.323 356.548 293.033 356.548 328.448C356.548 363.863 385.258 392.573 420.673 392.573H421.919C457.334 392.573 486.044 363.863 486.044 328.448C486.044 293.033 457.334 264.323 421.919 264.323Z" fill="white"/>
</mask>
<g mask="url(#mask6_1_4674)">
<path d="M446.92 331.553C445.579 338.548 448.866 345.064 454.269 346.091C459.665 347.133 465.121 342.291 466.461 335.283C467.794 328.294 464.502 321.778 459.11 320.75C453.711 319.722 448.257 324.557 446.92 331.553Z" fill="#FEE2CA"/>
</g>
<mask id="mask7_1_4674" style="mask-type:luminance" maskUnits="userSpaceOnUse" x="356" y="264" width="131" height="129">
<path d="M421.919 264.333H420.673C385.258 264.333 356.548 293.042 356.548 328.458C356.548 363.873 385.258 392.583 420.673 392.583H421.919C457.334 392.583 486.044 363.873 486.044 328.458C486.044 293.042 457.334 264.333 421.919 264.333Z" fill="white"/>
</mask>
<g mask="url(#mask7_1_4674)">
<path d="M449.823 332.117C448.878 337.045 451.195 341.617 454.988 342.337C458.778 343.061 462.618 339.659 463.555 334.745C464.497 329.825 462.183 325.246 458.393 324.524C454.596 323.793 450.759 327.201 449.823 332.117Z" fill="#FECAB6"/>
</g>
<mask id="mask8_1_4674" style="mask-type:luminance" maskUnits="userSpaceOnUse" x="356" y="264" width="131" height="129">
<path d="M421.942 264.344H420.697C385.282 264.344 356.572 293.054 356.572 328.469C356.572 363.884 385.282 392.594 420.697 392.594H421.942C457.357 392.594 486.067 363.884 486.067 328.469C486.067 293.054 457.357 264.344 421.942 264.344Z" fill="white"/>
</mask>
<g mask="url(#mask8_1_4674)">
<path d="M457.34 327.382C457.34 351.069 441.014 370.281 420.869 370.281C400.733 370.281 384.402 351.069 384.402 327.382C384.402 303.691 400.733 284.488 420.869 284.488C441.014 284.488 457.34 303.691 457.34 327.382Z" fill="#FEE2CA"/>
</g>
<mask id="mask9_1_4674" style="mask-type:luminance" maskUnits="userSpaceOnUse" x="356" y="264" width="131" height="129">
<path d="M421.966 264.329H420.72C385.305 264.329 356.595 293.038 356.595 328.454C356.595 363.869 385.305 392.579 420.72 392.579H421.966C457.381 392.579 486.091 363.869 486.091 328.454C486.091 293.038 457.381 264.329 421.966 264.329Z" fill="white"/>
</mask>
<g mask="url(#mask9_1_4674)">
<path d="M410.425 330.687C410.425 332.629 408.836 334.205 406.897 334.205C404.952 334.205 403.376 332.629 403.376 330.687C403.376 328.736 404.952 327.161 406.897 327.161C408.836 327.161 410.425 328.736 410.425 330.687Z" fill="#754636"/>
</g>
<mask id="mask10_1_4674" style="mask-type:luminance" maskUnits="userSpaceOnUse" x="356" y="264" width="131" height="129">
<path d="M421.938 264.329H420.692C385.277 264.329 356.567 293.038 356.567 328.454C356.567 363.869 385.277 392.579 420.692 392.579H421.938C457.353 392.579 486.063 363.869 486.063 328.454C486.063 293.038 457.353 264.329 421.938 264.329Z" fill="white"/>
</mask>
<g mask="url(#mask10_1_4674)">
<path d="M438.364 330.687C438.364 332.629 436.788 334.205 434.845 334.205C432.897 334.205 431.318 332.629 431.318 330.687C431.318 328.736 432.897 327.161 434.845 327.161C436.788 327.161 438.364 328.736 438.364 330.687Z" fill="#754636"/>
</g>
<mask id="mask11_1_4674" style="mask-type:luminance" maskUnits="userSpaceOnUse" x="356" y="264" width="131" height="129">
<path d="M421.952 264.315H420.706C385.291 264.315 356.581 293.025 356.581 328.44C356.581 363.855 385.291 392.565 420.706 392.565H421.952C457.367 392.565 486.077 363.855 486.077 328.44C486.077 293.025 457.367 264.315 421.952 264.315Z" fill="white"/>
</mask>
<g mask="url(#mask11_1_4674)">
<path d="M420.869 329.963C419.717 329.963 415.202 341.96 416.916 343.206C418.103 344.065 419.889 344.183 420.869 344.165C421.849 344.183 423.636 344.065 424.823 343.206C426.537 341.96 422.033 329.963 420.869 329.963Z" fill="#FEAB9A"/>
</g>
<mask id="mask12_1_4674" style="mask-type:luminance" maskUnits="userSpaceOnUse" x="356" y="264" width="131" height="129">
<path d="M421.952 264.4H420.707C385.292 264.4 356.582 293.109 356.582 328.525C356.582 363.94 385.292 392.65 420.707 392.65H421.952C457.368 392.65 486.077 363.94 486.077 328.525C486.077 293.109 457.368 264.4 421.952 264.4Z" fill="white"/>
</mask>
<g mask="url(#mask12_1_4674)">
<path d="M456.69 306.301C455.19 295.968 450.345 290.26 445.997 285.832C441.653 281.397 427.249 277.553 413.209 277.522C412.684 277.52 412.174 277.544 411.67 277.571C408.683 276.585 378.51 283.454 378.51 292.621C378.51 297.223 381.15 301.389 385.407 304.397C385.25 305.121 385.132 305.768 385.054 306.301C383.556 316.648 381.376 327.891 385.054 327.437C388.728 326.981 387.697 323.343 390.718 318.696C393.738 314.056 395.086 309.225 395.086 309.225C395.086 309.225 413.403 312.007 426.27 313.521C439.139 315.036 445.997 312.413 445.997 312.413C445.997 312.413 453.015 326.981 456.69 327.437C460.366 327.891 458.18 316.648 456.69 306.301Z" fill="#954800"/>
</g>
<mask id="mask13_1_4674" style="mask-type:luminance" maskUnits="userSpaceOnUse" x="356" y="264" width="131" height="129">
<path d="M421.942 264.283H420.697C385.282 264.283 356.572 292.993 356.572 328.408C356.572 363.823 385.282 392.533 420.697 392.533H421.942C457.357 392.533 486.067 363.823 486.067 328.408C486.067 292.993 457.357 264.283 421.942 264.283Z" fill="white"/>
</mask>
<g mask="url(#mask13_1_4674)">
<path d="M411.784 347.155C411.629 347.935 411.534 348.742 411.534 349.579C411.534 355.491 415.717 360.284 420.872 360.284C426.033 360.284 430.211 355.491 430.211 349.579C430.211 348.742 430.121 347.935 429.962 347.155H411.784Z" fill="#FE5B7C"/>
</g>
<path d="M293.561 135.464H153.494C146.968 135.464 141.682 140.752 141.682 147.275V152.921C136.098 154.501 127.309 156.233 118.617 154.87C119.365 160.612 130.526 170.556 141.682 172.722V223.498C141.682 230.02 146.968 235.311 153.494 235.311H293.561C300.086 235.311 305.376 230.02 305.376 223.498V147.275C305.376 140.752 300.086 135.464 293.561 135.464Z" fill="#00927F"/>
<path d="M288.333 158.386H159.974V154.735H288.333V158.386Z" fill="#DEE1E6"/>
<path d="M288.333 177.603H159.974V173.953H288.333V177.603Z" fill="#DEE1E6"/>
<path d="M288.333 196.822H159.974V193.171H288.333V196.822Z" fill="#DEE1E6"/>
<path d="M288.333 216.039H159.974V212.389H288.333V216.039Z" fill="#DEE1E6"/>
<path d="M91.313 78.4011C93.1294 76.6366 94.9762 74.9038 96.8548 73.2065" stroke="#DEE1E6" stroke-width="3.8" stroke-miterlimit="10" stroke-linecap="round"/>
<path fill-rule="evenodd" clip-rule="evenodd" d="M447.391 226.196C447.369 223.689 447.304 221.191 447.195 218.706L443.398 218.872C443.505 221.314 443.57 223.766 443.591 226.229L447.391 226.196ZM446.016 203.801C445.444 198.814 444.699 193.88 443.784 189.003L440.049 189.703C440.947 194.491 441.68 199.337 442.241 204.235L446.016 203.801ZM440.506 174.415C439.233 169.568 437.793 164.79 436.19 160.086L432.594 161.312C434.167 165.93 435.582 170.622 436.831 175.38L440.506 174.415ZM430.865 146.11C428.917 141.502 426.811 136.978 424.553 132.546L421.166 134.27C423.384 138.623 425.453 143.065 427.364 147.589L430.865 146.11ZM417.292 119.467C414.715 115.188 411.989 111.009 409.122 106.937L406.015 109.124C408.83 113.123 411.507 117.227 414.037 121.429L417.292 119.467ZM400.087 95.016C396.934 91.1484 393.647 87.395 390.232 83.7629L387.463 86.3657C390.817 89.9327 394.045 93.6187 397.142 97.4167L400.087 95.016ZM379.608 73.2328C375.946 69.8507 372.163 66.5968 368.268 63.4783L365.893 66.4448C369.719 69.5074 373.433 72.7029 377.03 76.0244L379.608 73.2328ZM112.378 57.8872C110.495 59.2647 108.636 60.6729 106.801 62.1109L109.144 65.1019C110.947 63.6898 112.772 62.3069 114.622 60.9541L112.378 57.8872ZM356.268 54.5487C352.17 51.7189 347.966 49.0305 343.664 46.4905L341.733 49.7627C345.957 52.2568 350.084 54.8967 354.109 57.6756L356.268 54.5487ZM135.995 42.9057C131.891 45.1415 127.871 47.5096 123.938 50.0045L125.974 53.2132C129.835 50.7634 133.784 48.438 137.814 46.2426L135.995 42.9057ZM330.522 39.3476C326.069 37.1291 321.526 35.0635 316.902 33.1577L315.454 36.6711C319.995 38.5423 324.455 40.5705 328.827 42.7488L330.522 39.3476ZM161.393 31.1907C157.023 32.8625 152.722 34.6756 148.498 36.6244L150.089 40.0749C154.237 38.1615 158.46 36.3813 162.75 34.7398L161.393 31.1907ZM302.878 27.9574C298.16 26.3974 293.369 24.9997 288.51 23.7707L287.578 27.4546C292.349 28.6613 297.053 30.0336 301.685 31.5652L302.878 27.9574ZM188.126 22.9657C183.566 24.041 179.063 25.2644 174.621 26.6306L175.738 30.2627C180.099 28.9213 184.52 27.7201 188.998 26.6643L188.126 22.9657ZM273.893 20.6238C269.01 19.7534 264.069 19.0512 259.075 18.5235L258.676 22.3024C263.579 22.8207 268.432 23.5102 273.227 24.3648L273.893 20.6238ZM215.714 18.3756C211.043 18.8367 206.419 19.4502 201.844 20.2112L202.467 23.9597C206.959 23.2125 211.501 22.61 216.087 22.1572L215.714 18.3756ZM244.162 17.4771C241.676 17.3903 239.179 17.3464 236.671 17.3464C234.33 17.3464 231.997 17.3847 229.674 17.4604L229.797 21.2584C232.079 21.1839 234.371 21.1464 236.671 21.1464C239.135 21.1464 241.588 21.1894 244.03 21.2748L244.162 17.4771Z" fill="#DEE1E6"/>
<path d="M445.283 233.343C445.217 235.885 445.105 238.417 444.949 240.936" stroke="#DEE1E6" stroke-width="3.8" stroke-miterlimit="10" stroke-linecap="round"/>
<path d="M435.624 237.328L443.661 254.483L454.501 238.946L435.624 237.328Z" fill="#DEE1E6"/>
<path d="M181.589 428.85C179.141 428.18 176.709 427.467 174.297 426.712" stroke="#DEE1E6" stroke-width="3.8" stroke-miterlimit="10" stroke-linecap="round"/>
<path fill-rule="evenodd" clip-rule="evenodd" d="M160.168 419.904C157.779 418.95 155.411 417.954 153.068 416.914L151.528 420.388C153.915 421.447 156.326 422.462 158.759 423.433L160.168 419.904ZM139.227 410.149C134.691 407.718 130.255 405.122 125.929 402.371L123.89 405.577C128.296 408.379 132.812 411.022 137.432 413.498L139.227 410.149ZM113.247 393.624C109.125 390.551 105.123 387.327 101.246 383.962L98.7553 386.832C102.703 390.258 106.778 393.54 110.975 396.67L113.247 393.624ZM89.9945 373.438C86.376 369.793 82.8923 366.015 79.5513 362.111L76.6642 364.582C80.066 368.557 83.6133 372.404 87.2979 376.116L89.9945 373.438ZM69.9752 350.042C66.9377 345.908 64.0501 341.657 61.3205 337.298L58.0997 339.314C60.8794 343.754 63.8198 348.083 66.913 352.292L69.9752 350.042ZM53.6379 323.944C51.2503 319.412 49.0261 314.78 46.973 310.056L43.488 311.571C45.5789 316.381 47.8442 321.099 50.2757 325.715L53.6379 323.944ZM41.3662 295.709C39.6846 290.879 38.1768 285.967 36.8507 280.982L33.1784 281.958C34.5291 287.036 36.0647 292.039 37.7774 296.958L41.3662 295.709ZM33.4515 265.956C32.5123 260.939 31.7541 255.857 31.1841 250.717L27.4072 251.136C27.9877 256.37 28.7598 261.545 29.7164 266.656L33.4515 265.956ZM30.0531 235.35C29.9595 232.794 29.9123 230.224 29.9123 227.645C29.9123 225.304 29.9512 222.972 30.0283 220.65L26.2304 220.524C26.1519 222.888 26.1123 225.261 26.1123 227.645C26.1123 230.271 26.1604 232.886 26.2557 235.49L30.0531 235.35ZM30.9595 206.693C31.1933 204.366 31.4657 202.05 31.7759 199.746L28.0099 199.239C27.6941 201.585 27.4167 203.943 27.1785 206.314L30.9595 206.693Z" fill="#DEE1E6"/>
<path d="M31.1523 191.945C31.5867 189.443 32.0658 186.954 32.5883 184.484" stroke="#DEE1E6" stroke-width="3.8" stroke-miterlimit="10" stroke-linecap="round"/>
<path d="M41.2832 189.425L35.8587 171.274L22.8496 185.045L41.2832 189.425Z" fill="#DEE1E6"/>
<path d="M128.838 19.5383C125.751 19.5383 123.25 17.0352 123.25 13.9512C123.25 10.8641 125.751 8.36101 128.838 8.36101C131.924 8.36101 134.425 10.8641 134.425 13.9512C134.425 17.0352 131.924 19.5383 128.838 19.5383ZM142.789 16.8046V11.0958L138.507 11.3797C138.277 10.5118 137.932 9.68844 137.492 8.93L140.722 6.10369L136.684 2.06821L133.858 5.2972C133.097 4.85488 132.277 4.50908 131.407 4.27994L131.692 0H125.983L126.268 4.27994C125.4 4.50908 124.577 4.85488 123.818 5.2972L120.993 2.06821L116.955 6.10369L120.185 8.93C119.744 9.68844 119.399 10.5118 119.168 11.3797L114.887 11.0958V16.8046L119.168 16.5196C119.399 17.3884 119.744 18.2107 120.185 18.9694L116.955 21.7966L120.993 25.8335L123.818 22.6035C124.577 23.0445 125.4 23.3888 126.268 23.6194L125.983 27.9007H131.692L131.407 23.6194C132.277 23.3888 133.097 23.0445 133.858 22.6035L136.684 25.8335L140.722 21.7966L137.492 18.9694C137.932 18.2107 138.277 17.3884 138.507 16.5196L142.789 16.8046Z" fill="#DEE1E6"/>
<path d="M415.462 455.611H407.288V447.438H403.057V455.611H394.884V459.843H403.057V468.015H407.288V459.843H415.462V455.611Z" fill="#DEE1E6"/>
<path d="M128.832 298.231H120.659V290.058H116.427V298.231H108.254V302.462H116.427V310.636H120.659V302.462H128.832V298.231Z" fill="#DEE1E6"/>
<path d="M347.225 45.5872H383.116C389.88 45.5872 395.366 51.0719 395.366 57.8384V74.2215C395.366 80.9868 389.88 86.4728 383.116 86.4728H380.32V97.4501L369.387 86.4728H347.225C340.459 86.4728 334.974 80.9868 334.974 74.2215V57.8384C334.974 51.0719 340.459 45.5872 347.225 45.5872Z" fill="#FF8A15"/>
<path d="M353.622 27.4561H316.009C309.242 27.4561 303.757 32.9419 303.757 39.7073V57.8155C303.757 64.5821 309.242 70.0667 316.009 70.0667H318.804V81.0437L329.735 70.0667H353.622C360.39 70.0667 365.875 64.5821 365.875 57.8155V39.7073C365.875 32.9419 360.39 27.4561 353.622 27.4561Z" fill="#00927F"/>
<path d="M324.435 48.7729C324.435 51.5115 322.213 53.7319 319.475 53.7319C316.737 53.7319 314.516 51.5115 314.516 48.7729C314.516 46.0345 316.737 43.814 319.475 43.814C322.213 43.814 324.435 46.0345 324.435 48.7729Z" fill="#DEE1E6"/>
<path d="M339.775 48.7729C339.775 51.5115 337.554 53.7319 334.816 53.7319C332.077 53.7319 329.857 51.5115 329.857 48.7729C329.857 46.0345 332.077 43.814 334.816 43.814C337.554 43.814 339.775 46.0345 339.775 48.7729Z" fill="#DEE1E6"/>
<path d="M355.1 48.7729C355.1 51.5115 352.879 53.7319 350.142 53.7319C347.402 53.7319 345.183 51.5115 345.183 48.7729C345.183 46.0345 347.402 43.814 350.142 43.814C352.879 43.814 355.1 46.0345 355.1 48.7729Z" fill="#DEE1E6"/>
<mask id="mask14_1_4674" style="mask-type:luminance" maskUnits="userSpaceOnUse" x="0" y="32" width="134" height="134">
<path d="M133.953 98.6061C133.953 61.8791 104.18 32.1061 67.4531 32.1061C30.7262 32.1061 0.953125 61.8791 0.953125 98.6061C0.953125 135.333 30.7262 165.106 67.4531 165.106C104.18 165.106 133.953 135.333 133.953 98.6061Z" fill="white"/>
</mask>
<g mask="url(#mask14_1_4674)">
<path d="M133.953 98.6051C133.953 135.333 104.179 165.106 67.4535 165.106C30.727 165.106 0.953125 135.333 0.953125 98.6051C0.953125 61.8794 30.727 32.106 67.4535 32.106C104.179 32.106 133.953 61.8794 133.953 98.6051Z" fill="#91FFF0"/>
</g>
<mask id="mask15_1_4674" style="mask-type:luminance" maskUnits="userSpaceOnUse" x="1" y="32" width="134" height="134">
<path d="M134.005 98.6356C134.005 61.9086 104.232 32.1356 67.5054 32.1356C30.7784 32.1356 1.00537 61.9086 1.00537 98.6356C1.00537 135.362 30.7784 165.136 67.5054 165.136C104.232 165.136 134.005 135.362 134.005 98.6356Z" fill="white"/>
</mask>
<g mask="url(#mask15_1_4674)">
<path d="M20.3384 95.5148C19.6351 95.5148 19.0242 94.9952 18.9286 94.281L16.0848 72.9436C15.9793 72.1657 16.5268 71.4495 17.306 71.3452C18.0826 71.2409 18.8004 71.788 18.904 72.5675L21.7498 93.9048C21.8521 94.6826 21.3067 95.3989 20.5266 95.5034C20.4632 95.5101 20.3998 95.5148 20.3384 95.5148Z" fill="#00E8C9"/>
</g>
<mask id="mask16_1_4674" style="mask-type:luminance" maskUnits="userSpaceOnUse" x="0" y="32" width="134" height="134">
<path d="M133.906 98.6356C133.906 61.9086 104.133 32.1356 67.4062 32.1356C30.6793 32.1356 0.90625 61.9086 0.90625 98.6356C0.90625 135.362 30.6793 165.136 67.4062 165.136C104.133 165.136 133.906 135.362 133.906 98.6356Z" fill="white"/>
</mask>
<g mask="url(#mask16_1_4674)">
<path d="M114.315 95.5148C115.018 95.5148 115.628 94.9952 115.724 94.281L118.568 72.9436C118.675 72.1657 118.126 71.4495 117.347 71.3452C116.57 71.2409 115.852 71.788 115.75 72.5675L112.903 93.9048C112.801 94.6826 113.348 95.3989 114.127 95.5034C114.191 95.5101 114.253 95.5148 114.315 95.5148Z" fill="#00E8C9"/>
</g>
<mask id="mask17_1_4674" style="mask-type:luminance" maskUnits="userSpaceOnUse" x="0" y="32" width="134" height="134">
<path d="M133.953 98.5891C133.953 61.8621 104.18 32.0891 67.4531 32.0891C30.7262 32.0891 0.953125 61.8621 0.953125 98.5891C0.953125 135.316 30.7262 165.089 67.4531 165.089C104.18 165.089 133.953 135.316 133.953 98.5891Z" fill="white"/>
</mask>
<g mask="url(#mask17_1_4674)">
<path d="M113.465 102.251C113.465 120.904 98.3444 136.024 79.6923 136.024H55.2203C36.5686 136.024 21.4487 120.904 21.4487 102.251C21.4487 83.5981 36.5686 68.4797 55.2203 68.4797H79.6923C98.3444 68.4797 113.465 83.5981 113.465 102.251Z" fill="#00E8C9"/>
</g>
<mask id="mask18_1_4674" style="mask-type:luminance" maskUnits="userSpaceOnUse" x="0" y="32" width="134" height="134">
<path d="M133.953 98.6016C133.953 61.8746 104.18 32.1016 67.4531 32.1016C30.7262 32.1016 0.953125 61.8746 0.953125 98.6016C0.953125 135.328 30.7262 165.102 67.4531 165.102C104.18 165.102 133.953 135.328 133.953 98.6016Z" fill="white"/>
</mask>
<g mask="url(#mask18_1_4674)">
<path d="M103.265 100.416C103.265 110.358 95.207 118.42 85.2596 118.42H49.6426C39.6931 118.42 31.6353 110.358 31.6353 100.416C31.6353 90.474 39.6931 82.4122 49.6426 82.4122H85.2596C95.207 82.4122 103.265 90.474 103.265 100.416Z" fill="#00594D"/>
</g>
<mask id="mask19_1_4674" style="mask-type:luminance" maskUnits="userSpaceOnUse" x="0" y="32" width="134" height="134">
<path d="M133.934 98.6051C133.934 61.8782 104.161 32.1051 67.4341 32.1051C30.7071 32.1051 0.934082 61.8782 0.934082 98.6051C0.934082 135.332 30.7071 165.105 67.4341 165.105C104.161 165.105 133.934 135.332 133.934 98.6051Z" fill="white"/>
</mask>
<g mask="url(#mask19_1_4674)">
<path d="M90.2704 97.827C90.2704 100.252 88.3063 102.218 85.8806 102.218C83.4566 102.218 81.4873 100.252 81.4873 97.827C81.4873 95.4007 83.4566 93.4367 85.8806 93.4367C88.3063 93.4367 90.2704 95.4007 90.2704 97.827Z" fill="#DEE1E6"/>
</g>
<mask id="mask20_1_4674" style="mask-type:luminance" maskUnits="userSpaceOnUse" x="0" y="32" width="134" height="134">
<path d="M133.962 98.6051C133.962 61.8782 104.189 32.1051 67.4624 32.1051C30.7355 32.1051 0.962402 61.8782 0.962402 98.6051C0.962402 135.332 30.7355 165.105 67.4624 165.105C104.189 165.105 133.962 135.332 133.962 98.6051Z" fill="white"/>
</mask>
<g mask="url(#mask20_1_4674)">
<path d="M53.4117 97.827C53.4117 100.252 51.4413 102.218 49.0172 102.218C46.5921 102.218 44.6289 100.252 44.6289 97.827C44.6289 95.4007 46.5921 93.4367 49.0172 93.4367C51.4413 93.4367 53.4117 95.4007 53.4117 97.827Z" fill="#DEE1E6"/>
</g>
<mask id="mask21_1_4674" style="mask-type:luminance" maskUnits="userSpaceOnUse" x="0" y="32" width="134" height="134">
<path d="M133.953 98.5831C133.953 61.8561 104.18 32.0831 67.4531 32.0831C30.7262 32.0831 0.953125 61.8561 0.953125 98.5831C0.953125 135.31 30.7262 165.083 67.4531 165.083C104.18 165.083 133.953 135.31 133.953 98.5831Z" fill="white"/>
</mask>
<g mask="url(#mask21_1_4674)">
<path d="M59.4487 102.54C59.7647 109.106 63.2302 114.282 67.4571 114.282C71.6833 114.282 75.1509 109.106 75.4648 102.54H59.4487Z" fill="#DEE1E6"/>
</g>
<mask id="mask22_1_4674" style="mask-type:luminance" maskUnits="userSpaceOnUse" x="0" y="31" width="134" height="134">
<path d="M133.953 98.4716C133.953 61.7446 104.18 31.9716 67.4531 31.9716C30.7262 31.9716 0.953125 61.7446 0.953125 98.4716C0.953125 135.198 30.7262 164.972 67.4531 164.972C104.18 164.972 133.953 135.198 133.953 98.4716Z" fill="white"/>
</mask>
<g mask="url(#mask22_1_4674)">
<path d="M103.265 163.267C103.265 152.543 94.571 143.848 83.8459 143.848H51.0535C40.3286 143.848 31.6353 152.543 31.6353 163.267V176.427H103.265V163.267Z" fill="#00E8C9"/>
</g>
<mask id="mask23_1_4674" style="mask-type:luminance" maskUnits="userSpaceOnUse" x="0" y="32" width="134" height="134">
<path d="M133.953 98.5151C133.953 61.7881 104.18 32.0151 67.4531 32.0151C30.7262 32.0151 0.953125 61.7881 0.953125 98.5151C0.953125 135.242 30.7262 165.015 67.4531 165.015C104.18 165.015 133.953 135.242 133.953 98.5151Z" fill="white"/>
</mask>
<g mask="url(#mask23_1_4674)">
<path d="M78.7472 142.225H56.1646V137.616H78.7472V142.225Z" fill="#00594D"/>
</g>
<mask id="mask24_1_4674" style="mask-type:luminance" maskUnits="userSpaceOnUse" x="1" y="32" width="134" height="134">
<path d="M134.002 98.5891C134.002 61.8621 104.229 32.0891 67.5024 32.0891C30.7755 32.0891 1.00244 61.8621 1.00244 98.5891C1.00244 135.316 30.7755 165.089 67.5024 165.089C104.229 165.089 134.002 135.316 134.002 98.5891Z" fill="white"/>
</mask>
<g mask="url(#mask24_1_4674)">
<path d="M13.3931 102.25C13.3931 110.823 18.8144 117.9 25.8392 118.992V85.511C18.8144 86.6033 13.3931 93.6787 13.3931 102.25Z" fill="#00594D"/>
</g>
<mask id="mask25_1_4674" style="mask-type:luminance" maskUnits="userSpaceOnUse" x="1" y="32" width="134" height="134">
<path d="M134.001 98.6805C134.001 61.9536 104.228 32.1805 67.501 32.1805C30.774 32.1805 1.00098 61.9536 1.00098 98.6805C1.00098 135.407 30.774 165.181 67.501 165.181C104.228 165.181 134.001 135.407 134.001 98.6805Z" fill="white"/>
</mask>
<g mask="url(#mask25_1_4674)">
<path d="M12.9277 71.2226C12.9277 68.7029 14.971 66.6584 17.4918 66.6584L12.9277 71.2226Z" fill="#00594D"/>
</g>
<mask id="mask26_1_4674" style="mask-type:luminance" maskUnits="userSpaceOnUse" x="0" y="32" width="134" height="134">
<path d="M133.9 98.5891C133.9 61.8621 104.127 32.0891 67.3999 32.0891C30.673 32.0891 0.899902 61.8621 0.899902 98.5891C0.899902 135.316 30.673 165.089 67.3999 165.089C104.127 165.089 133.9 135.316 133.9 98.5891Z" fill="white"/>
</mask>
<g mask="url(#mask26_1_4674)">
<path d="M121.254 102.25C121.254 110.823 115.833 117.9 108.807 118.992V85.511C115.833 86.6033 121.254 93.6787 121.254 102.25Z" fill="#00594D"/>
</g>
<mask id="mask27_1_4674" style="mask-type:luminance" maskUnits="userSpaceOnUse" x="1" y="32" width="134" height="134">
<path d="M134.001 98.6611C134.001 61.9341 104.228 32.1611 67.501 32.1611C30.774 32.1611 1.00098 61.9341 1.00098 98.6611C1.00098 135.388 30.774 165.161 67.501 165.161C104.228 165.161 134.001 135.388 134.001 98.6611Z" fill="white"/>
</mask>
<g mask="url(#mask27_1_4674)">
<path d="M17.4918 66.6387C20.0125 66.6387 22.0558 68.6832 22.0558 71.203C22.0558 73.7243 20.0125 75.7671 17.4918 75.7671C14.971 75.7671 12.9277 73.7243 12.9277 71.203" fill="#00594D"/>
</g>
<mask id="mask28_1_4674" style="mask-type:luminance" maskUnits="userSpaceOnUse" x="0" y="32" width="134" height="134">
<path d="M133.901 98.6611C133.901 61.9341 104.128 32.1611 67.4014 32.1611C30.6744 32.1611 0.901367 61.9341 0.901367 98.6611C0.901367 135.388 30.6744 165.161 67.4014 165.161C104.128 165.161 133.901 135.388 133.901 98.6611Z" fill="white"/>
</mask>
<g mask="url(#mask28_1_4674)">
<path d="M112.589 71.203C112.589 73.7243 114.632 75.7671 117.154 75.7671C119.675 75.7671 121.717 73.7243 121.717 71.203C121.717 68.6832 119.675 66.6387 117.154 66.6387C114.632 66.6387 112.589 68.6832 112.589 71.203Z" fill="#00594D"/>
</g>
<mask id="mask29_1_4674" style="mask-type:luminance" maskUnits="userSpaceOnUse" x="0" y="32" width="134" height="134">
<path d="M133.976 98.561C133.976 61.8341 104.203 32.061 67.4761 32.061C30.7491 32.061 0.976074 61.8341 0.976074 98.561C0.976074 135.288 30.7491 165.061 67.4761 165.061C104.203 165.061 133.976 135.288 133.976 98.561Z" fill="white"/>
</mask>
<g mask="url(#mask29_1_4674)">
<path d="M37.8219 124.279C36.4164 124.279 34.6402 124.276 32.4799 124.265C24.8742 124.228 22.9857 114.655 22.9097 114.246C22.7654 113.475 23.2737 112.731 24.0448 112.586C24.8154 112.442 25.5607 112.949 25.7055 113.72C25.729 113.836 27.2513 121.393 32.4946 121.419C38.9238 121.451 41.9253 121.419 41.9553 121.419C42.7499 121.419 43.3843 122.041 43.3944 122.826C43.4011 123.613 42.7713 124.255 41.9868 124.265C41.9666 124.265 40.6232 124.279 37.8219 124.279Z" fill="#00E8C9"/>
</g>
<mask id="mask30_1_4674" style="mask-type:luminance" maskUnits="userSpaceOnUse" x="0" y="32" width="134" height="134">
<path d="M133.975 98.5546C133.975 61.8276 104.202 32.0546 67.4751 32.0546C30.7482 32.0546 0.975098 61.8276 0.975098 98.5546C0.975098 135.282 30.7482 165.055 67.4751 165.055C104.202 165.055 133.975 135.282 133.975 98.5546Z" fill="white"/>
</mask>
<g mask="url(#mask30_1_4674)">
<path d="M47.1829 122.85C47.1829 125.37 45.1395 127.415 42.6188 127.415C40.098 127.415 38.0547 125.37 38.0547 122.85C38.0547 120.329 40.098 118.286 42.6188 118.286C45.1395 118.286 47.1829 120.329 47.1829 122.85Z" fill="#00594D"/>
</g>
<path d="M186.431 354.374H326.498C333.023 354.374 338.311 359.664 338.311 366.184V371.83C343.893 373.408 352.682 375.141 361.376 373.779C360.627 379.519 349.467 389.467 338.311 391.63V478.878C338.311 485.402 333.023 490.694 326.498 490.694H186.431C179.907 490.694 174.617 485.402 174.617 478.878V366.184C174.617 359.664 179.907 354.374 186.431 354.374Z" fill="#FF8A15"/>
<path d="M191.661 376.312H320.019V372.664H191.661V376.312Z" fill="#DEE1E6"/>
<path d="M191.661 395.528H320.019V391.88H191.661V395.528Z" fill="#DEE1E6"/>
<path d="M191.661 414.75H320.019V411.1H191.661V414.75Z" fill="#DEE1E6"/>
<path d="M191.661 433.975H320.019V430.327H191.661V433.975Z" fill="#DEE1E6"/>
<path d="M191.661 453.197H320.019V449.546H191.661V453.197Z" fill="#DEE1E6"/>
<path d="M191.661 472.422H320.019V468.773H191.661V472.422Z" fill="#DEE1E6"/>
</g>
<defs>
<clipPath id="clip0_1_4674">
<rect x="0.899902" width="485.2" height="490.694" fill="white"/>
</clipPath>
</defs>
</svg>
